PathFileType	4	(X/Y/Z)	7_coords_data.trc
DataRate	CameraRate	NumFrames	NumMarkers	Units	OrigDataRate	OrigDataStartFrame	OrigNumFrames
30.0	30.0	6	21	m	30.0	47	56
Frame#	Time	THUMB_TIP	THUMB_IP	THUMB_MCP	THUMB_CMC	INDEX_TIP	INDEX_DIP	INDEX_PIP	INDEX_MCP	MIDDLE_TIP	MIDDLE_DIP	MIDDLE_PIP	MIDDLE_MCP	RING_TIP	RING_DIP	RING_PIP	RING_MCP	PINKY_TIP	PINKY_DIP	PINKY_PIP	PINKY_MCP	WRIST
X1	Y1	Z1	X2	Y2	Z2	X3	Y3	Z3	X4	Y4	Z4	X5	Y5	Z5	X6	Y6	Z6	X7	Y7	Z7	X8	Y8	Z8	X9	Y9	Z9	X10	Y10	Z10	X11	Y11	Z11	X12	Y12	Z12	X13	Y13	Z13	X14	Y14	Z14	X15	Y15	Z15	X16	Y16	Z16	X17	Y17	Z17	X18	Y18	Z18	X19	Y19	Z19	X20	Y20	Z20	X21	Y21	Z21
45	1.5333333333333266	0.4881263924039786	-0.02827399100155692	-0.17072307305965922	0.48015472530227044	-0.029554105987673163	-0.14920996474770515	0.4631981239377849	-0.03189649306439979	-0.12321367861009092	0.4661634143491805	-0.03258624293721535	-0.07870950691923662	0.5545832654475019	0.007008782959771587	-0.17658614004028805	0.5401245108093436	0.013500156046147405	-0.16782220885804944	0.5196182903698662	0.018278783185913472	-0.154086507967791	0.48935645403866	0.007363452091002309	-0.12618108012746293	0.5810294445484078	0.013069838848979609	-0.15754566069574327	0.5663276345306153	0.01808315211557443	-0.1482331168815258	0.5417182824883426	0.023674187343925235	-0.13365471960559622	0.5052583240459493	0.01664313126517014	-0.10880751449523507	0.5884443164317086	0.005669247888407614	-0.13702195914665039	0.574972038219314	0.011823433937483196	-0.12674461932346653	0.5551607892641665	0.01827320051376491	-0.11310295868596909	0.5206997745609677	0.013955787134236952	-0.09240225238555	0.5947270246160147	-0.01507394798634476	-0.09910928748295555	0.5808154167571016	-0.007853527737719745	-0.0922294111604427	0.5625284901360915	-0.0007437993050328773	-0.08475598521438321	0.5285086930380684	0.001997522028104992	-0.07309313763080294	0.462283081001861	-0.023011742144276925	-0.051989820119430985
46	1.5666666666666598	0.48936396471728894	-0.026673073650454127	-0.17002285971860454	0.4805549237960782	-0.02829413441178963	-0.14886221322431015	0.46323318587686646	-0.03165076357191021	-0.12322024691633027	0.4660874686392652	-0.03260499351046309	-0.07871370228369623	0.550195449890204	0.004540691107084771	-0.1771972519572207	0.5360526161867375	0.012132710327155127	-0.1688102680536845	0.5157732413457944	0.01835085269973402	-0.15531613990493537	0.4855447086845529	0.008678095098566319	-0.12692054750862658	0.5751795512053576	0.008173857992584965	-0.16029034386562108	0.5612805446692386	0.015111378182389612	-0.1509796816483041	0.5375549885439792	0.023293019411403826	-0.13616184498613015	0.5016327157339471	0.018614469143986123	-0.11001133056371626	0.5826626064512865	0.001236331180535899	-0.14006177873594983	0.570344132649824	0.009533639036053865	-0.12984366317810647	0.5516542471477764	0.018487769119036046	-0.11603454613980924	0.5177559859143567	0.016523036631827193	-0.09408531960208033	0.5887194668188274	-0.01882625276401506	-0.10460648633652969	0.5765080077949106	-0.009468522449872951	-0.09710227739254473	0.5596774879143451	-0.00012775420515209746	-0.08871802619471514	0.5267752005822525	0.004857734716644857	-0.07480875448383595	0.4622830810018609	-0.023011742144276925	-0.051989820119430985
48	1.600000000000001	0.49067303990564404	-0.024674595930592513	-0.16917582258276131	0.4809999188873655	-0.026792327555677065	-0.14844068471174987	0.46335603105330725	-0.03137634883305929	-0.1232117336628521	0.46605005555598045	-0.03264900134350157	-0.07870316608798344	0.5451403192141451	0.002214549647370001	-0.17765688818401448	0.5313742265965801	0.010875993459893096	-0.16968982566843643	0.5114007613104286	0.018512731134640803	-0.1564704930396692	0.48133308019101795	0.009990564559452686	-0.12754052029571056	0.5681508761870059	0.003399558772263611	-0.16270844028344916	0.555292201170397	0.012268430544232767	-0.15354342035386853	0.5327046737646122	0.023035068963843885	-0.13860044030187513	0.4975366932153852	0.020635108448005646	-0.11114864155185478	0.5755841708300516	-0.002836964576961698	-0.14267591171064098	0.5647306570630356	0.007575212027091216	-0.13273670564198503	0.5474457642856654	0.019012075634375902	-0.11893052544965133	0.5143002590961053	0.019285394579038106	-0.09577838480384204	0.5811227998655046	-0.02207446232124588	-0.10962477830508355	0.5711101026922508	-0.010653367199821906	-0.10173145951359275	0.5561291485481352	0.0008787379936509021	-0.09259945087701216	0.5246380660826157	0.008058883715873377	-0.07654826140216331	0.4622830810018609	-0.023011742144276925	-0.051989820119430985
49	1.6333333333333344	0.4920686854878331	-0.02283901895839735	-0.1682675997634041	0.48159894118985014	-0.02543775822430261	-0.14797890812094716	0.4636573718735695	-0.031150880388236546	-0.12319422886925913	0.46607998359960523	-0.0327041393870624	-0.07867896925070317	0.5406985630325304	-1.2859775477602753e-05	-0.17760083232063095	0.5272978154205265	0.009583819503551583	-0.17009591991242656	0.5076198448384049	0.01849275292725494	-0.1572344187550505	0.4776437568074695	0.01102626262387274	-0.12792022828505595	0.5615357932971426	-0.0009285469605362362	-0.16409119487213536	0.5497583383983655	0.009603950427702679	-0.15523918635011003	0.528325757712562	0.022638474308155243	-0.14040155775398888	0.4938538416531473	0.022286607055849394	-0.11198129889469222	0.5687628744377393	-0.0063123499894309765	-0.14414185811166674	0.5594003452677969	0.005852067761873636	-0.1346882879758013	0.5435191765942053	0.01941218060208405	-0.12112024462675142	0.5110694441914811	0.021671528611757362	-0.09710710140136791	0.5735617600233802	-0.024501171456469684	-0.113109465763367	0.5657450892576678	-0.011512239513031264	-0.10516042147432347	0.5526298447821926	0.0018154072954462697	-0.09561179791398777	0.522545662850242	0.01093299592932695	-0.0779286130767296	0.4622830810018609	-0.023011742144276925	-0.051989820119430985
50	1.6666666666666679	0.49359426164631337	-0.02128572692196251	-0.16734361830377142	0.48241702497867356	-0.024317257452804775	-0.14749722812529964	0.46418631899479124	-0.030989415171513546	-0.12316733559150672	0.4661959136303454	-0.032765482349070285	-0.07863984840907579	0.5373540598978052	-0.0020270112692345466	-0.1770495439227492	0.5242623195755971	0.008333244098678527	-0.170030181840088	0.5048180727404231	0.018309778555127942	-0.15760440789026475	0.47480516282196183	0.011757539679718265	-0.1281098406287181	0.556097156672988	-0.004619991271689883	-0.16444834927720064	0.545300378570384	0.007236350232851518	-0.15603070419494552	0.5248884561623832	0.022130573882285676	-0.14150744438557766	0.49093190078912563	0.02351640247405018	-0.11250434545982235	0.5629950115783502	-0.009124978517549454	-0.14448736931633543	0.5549607829407311	0.004369081049323986	-0.13563516469804193	0.540317127147483	0.019629495501192307	-0.12248742440679472	0.508394730102234	0.023571573919435318	-0.0979896404533448	0.5669746255593697	-0.026188805775000046	-0.1150121613600864	0.5610548958002269	-0.01212432190882673	-0.10725670565736523	0.5495981628542018	0.002577095306933286	-0.09759111612275218	0.5207284029782686	0.013324282300773871	-0.07883162819196421	0.462283081001861	-0.023011742144276925	-0.051989820119430985
51	1.700000000000001	0.4953022793063143	-0.020125723146701024	-0.16645357614556622	0.4835231060453149	-0.023511703912402093	-0.14701685287384014	0.46499113028826844	-0.03090728414777999	-0.12312770748263102	0.46641626027808336	-0.03282772299197767	-0.07858367399712551	0.5355749820024326	-0.0037190921426167867	-0.17604511259364708	0.5226892657718776	0.007204754180037964	-0.16951610817148316	0.5033624477169657	0.01799424487384793	-0.15759676140076956	0.473125902359682	0.012170195566733155	-0.1281779261327779	0.552559712071285	-0.00757295397623825	-0.16383934066189332	0.5425121640993754	0.005249164443947074	-0.15592479336145204	0.522842033580922	0.021547995255930652	-0.14189469608633143	0.4891014037347059	0.02429746894177176	-0.1127372234072479	0.5590049614948136	-0.01133643525321737	-0.14377809978343864	0.5519859376555303	0.003087556402745939	-0.1355512067458287	0.5382732744518586	0.019619924483537665	-0.12294868110594648	0.5066076733792171	0.02490850526615418	-0.09837142625488404	0.5621035831285213	-0.027404813777193615	-0.11537173615957153	0.5576029375328878	-0.012646802635640997	-0.10795922670808955	0.5474351605094372	0.0030531941205770297	-0.09842306231897946	0.5194272094035421	0.015107425127284246	-0.07915823320770166	0.4622830810018608	-0.023011742144276925	-0.051989820119430985
